The Wild Stallion (2009)       



Verenigde Staten
Drama / Familie
86 minuten

geregisseerd door Craig Clyde
met Miranda Cosgrove, Robert Wagner en Fred Ward

The Wild Stallion gaat over een meisje, Hannah genaamd (Miranda Cosgrove) die besluit om foto's te gaan maken van paarden, voor haar schoolproject. Nadat ze een ranch bezocht heeft en verliefd geworden is op de paarden, krijgt Hannah te maken met illegale handel in mustang


English

A story about two girls, CJ and Hanna. CJ lives on a ranch, Hanna comes to visit and decides to photograph wild horses for a school project. The girls become great friends and learn of a plot that might jeopardize the mustangs.

**********************************************************************************

Post info:
Source....................................: The Wild Stallion 2009 R1 NTSC DVDR-CME
Audio.....................................: Dolby Digital 5.1 Engels & DD2.0
Menu......................................: Ja
Extra's...................................: Ja
Ondertitels...............................: Nederlands, Engels

Vertaling.................................: Pr0t0n & Remco1 (Mooi werk!!!)
Controle en bewerking..............: Guiker

**********************************************************************************
Format                           : MPEG-PS
File size                        : 1 024 MiB
Duration                         : 24mn 48s
Overall bit rate                 : 5 772 Kbps

Video
ID                               : 224 (0xE0)
Format                           : MPEG Video
Format version                   : Version 2
Format profile                   : Main@Main
Format settings, Matrix          : Default
Duration                         : 24mn 48s
Bit rate mode                    : Variable
Bit rate                         : 4 903 Kbps
Nominal bit rate                 : 9 800 Kbps
Width                            : 720 pixels
Height                           : 480 pixels
Display aspect ratio             : 16/9
Frame rate                       : 29.970 fps
Standard                         : NTSC
Colorimetry                      : 4:2:0
Scan type                        : Progressive
Scan order                       : Top Field First
Bits/(Pixel*Frame)               : 0.473
Stream size                      : 870 MiB (85%)

Audio #1
ID                               : 128 (0x80)
Format                           : AC-3
Format/Info                      : Audio Coding 3
Duration                         : 24mn 48s
Bit rate mode                    : Constant
Bit rate                         : 192 Kbps
Channel(s)                       : 2 channels
Channel positions                : L R
Sampling rate                    : 48.0 KHz
Stream size                      : 34.1 MiB (3%)

Audio #2
ID                               : 129 (0x81)
Format                           : AC-3
Format/Info                      : Audio Coding 3
Duration                         : 24mn 48s
Bit rate mode                    : Constant
Bit rate                         : 448 Kbps
Channel(s)                       : 6 channels
Channel positions                : Front: L C R, Surround: L R, LFE
Sampling rate                    : 48.0 KHz
Stream size                      : 79.5 MiB (8%)

Text #1
ID                               : 32 (0x20)
Format                           : RLE
Format/Info                      : Run-length encoding
Duration                         : 24mn 45s

Text #2
ID                               : 33 (0x21)
Format                           : RLE
Format/Info                      : Run-length encoding
Duration                         : 24mn 45s

Menu
Format                           : DVD-Video

Spotinformatie 
Categorie : Beeld 
Formaat : DVD5 
Bron : Retail
 
Ondertitels : Nederlands (instelbaar)
Engels (instelbaar)
 
Genre : Drama
Familiefilm
 
Weblink : http://www.moviemeter.nl/film/61093 
Weblink : http://www.imdb.com/title/tt0492890

 
***************************************** 

Brought to you by 
Pioen 
2Lions Team 



meer zien?? 
Kom dan eens kijken op ons forum 
       
http://www.2lions.ons-forum.nl 

2Lions-Team for all your Dutch MOVIES and more 

***************************************** 

DON T HIT AND RUN Niet gelijk afhaken als de film binnen is blijf seeden. 
